<?xml version="1.0" encoding="UTF-8"?><svg id="Calque_2" xmlns="http://www.w3.org/2000/svg" xmlns:xlink="http://www.w3.org/1999/xlink" viewBox="0 0 789.03 137.44"><defs><style>.cls-1{fill:url(#Dégradé_sans_nom_11-2);}.cls-1,.cls-2,.cls-3{stroke-width:0px;}.cls-2{fill:#fff;}.cls-3{fill:url(#Dégradé_sans_nom_11);}</style><linearGradient id="Dégradé_sans_nom_11" x1="517.03" y1="54.5" x2="789.03" y2="54.5" gradientUnits="userSpaceOnUse"><stop offset="0" stop-color="#ba3587"/><stop offset=".05" stop-color="#b53688"/><stop offset=".69" stop-color="#7e4796"/><stop offset="1" stop-color="#694e9c"/></linearGradient><linearGradient id="Dégradé_sans_nom_11-2" x1="-1137.32" y1="-2143.73" x2="-1064.69" y2="-2143.73" gradientTransform="translate(-572.09 2371.34) rotate(43.23)" xlink:href="#Dégradé_sans_nom_11"/></defs><g id="Layer_2"><path class="cls-2" d="M276,4.47h12.57v68.71c0,7.09-1.67,13.42-4.99,18.98-3.33,5.56-8.01,9.93-14.06,13.12-6.05,3.19-13.14,4.79-21.28,4.79s-15.24-1.6-21.28-4.79c-6.05-3.19-10.74-7.57-14.06-13.12-3.33-5.56-4.99-11.88-4.99-18.98V4.47h12.57v67.7c0,5.07,1.11,9.57,3.34,13.5,2.23,3.94,5.41,7.03,9.55,9.27,4.14,2.25,9.1,3.37,14.87,3.37s10.74-1.12,14.9-3.37c4.16-2.25,7.34-5.34,9.55-9.27,2.21-3.94,3.32-8.44,3.32-13.5V4.47Z"/><path class="cls-2" d="M324.04,61.43v46.82h-11.96V30.42h11.55v12.16h1.01c1.82-3.95,4.59-7.14,8.31-9.55,3.72-2.41,8.51-3.62,14.39-3.62,5.27,0,9.88,1.07,13.83,3.22,3.95,2.15,7.03,5.39,9.22,9.73,2.2,4.34,3.29,9.82,3.29,16.44v49.46h-11.96v-48.65c0-6.11-1.59-10.89-4.76-14.32-3.18-3.43-7.53-5.14-13.07-5.14-3.82,0-7.22.83-10.21,2.48-2.99,1.66-5.35,4.07-7.07,7.25-1.72,3.18-2.58,7.03-2.58,11.55Z"/><path class="cls-2" d="M401.67,17.44c-2.33,0-4.33-.79-6.01-2.38-1.67-1.59-2.51-3.5-2.51-5.73s.84-4.14,2.51-5.73c1.67-1.59,3.67-2.38,6.01-2.38s4.33.79,6,2.38c1.67,1.59,2.51,3.5,2.51,5.73s-.84,4.14-2.51,5.73c-1.67,1.59-3.67,2.38-6,2.38ZM395.59,108.25V30.42h11.96v77.84h-11.96Z"/><path class="cls-2" d="M494.5,137.44h-11.96v-41.15h-1.01c-.88,1.42-2.13,3.2-3.75,5.35-1.62,2.15-3.94,4.05-6.94,5.73s-7.01,2.51-12.01,2.51c-6.49,0-12.21-1.65-17.18-4.94-4.97-3.29-8.85-7.96-11.66-13.99s-4.21-13.17-4.21-21.41,1.4-15.27,4.21-21.28c2.8-6.01,6.71-10.66,11.71-13.94,5-3.28,10.78-4.92,17.33-4.92,5.07,0,9.08.84,12.04,2.51,2.96,1.67,5.22,3.56,6.79,5.68,1.57,2.11,2.79,3.84,3.67,5.19h1.42v-12.36h11.55v107.02ZM482.75,69.33c0-5.81-.84-10.9-2.53-15.28-1.69-4.38-4.19-7.79-7.5-10.24-3.31-2.45-7.4-3.67-12.26-3.67s-9.28,1.29-12.64,3.88c-3.36,2.58-5.88,6.08-7.55,10.49-1.67,4.41-2.51,9.35-2.51,14.82s.85,10.57,2.56,15.08c1.71,4.51,4.24,8.09,7.6,10.74,3.36,2.65,7.54,3.98,12.54,3.98s8.85-1.26,12.16-3.77c3.31-2.52,5.83-6.01,7.55-10.49,1.72-4.48,2.58-9.65,2.58-15.53Z"/><path class="cls-3" d="M576.03,46v17h-42v45h-17V1h17v45h42ZM576.03,108h17v-45h-17v45ZM615.03,30v62h17V30h-17ZM631.03,109h43v-17h-43v17ZM674.03,92h17V30h-17v62ZM730.03,0h-17v92h17v-44h42v-17h-42V0ZM772.03,109v-17h-43v17h43ZM772.03,48v44h17v-44h-17Z"/><rect class="cls-2" x="71.65" y="25.43" width="14.51" height="91.31" transform="translate(70.09 -34.75) rotate(43.23)"/><rect class="cls-2" x="14.24" y="67.93" width="14.51" height="43.61" transform="translate(-58.61 43.94) rotate(-46.77)"/><rect class="cls-2" x="18.05" y="14.03" width="14.51" height="58.45" transform="translate(36.49 -5.59) rotate(43.23)"/><path class="cls-1" d="M41.68,78.85l-10.57-9.94L93.65,2.38l10.57,9.94-62.53,66.53ZM114.15,1.74l-9.94,10.57,31.78,29.87,9.94-10.57L114.15,1.74ZM146.57,52.12l-10.57-9.94-40.03,42.59,10.57,9.94,40.03-42.59Z"/></g></svg>